<?xml version="1.0" encoding="UTF-8" standalone="no"?>
<svg
   xmlns:dc="http://purl.org/dc/elements/1.1/"
   xmlns:cc="http://creativecommons.org/ns#"
   xmlns:rdf="http://www.w3.org/1999/02/22-rdf-syntax-ns#"
   xmlns:svg="http://www.w3.org/2000/svg"
   xmlns="http://www.w3.org/2000/svg"
   viewBox="0 0 4000 2666.6667"
   height="2666.6667"
   width="4000"
   xml:space="preserve"
   id="svg2"
   version="1.1"><metadata
     id="metadata8"><rdf:RDF><cc:Work
         rdf:about=""><dc:format>image/svg+xml</dc:format><dc:type
           rdf:resource="http://purl.org/dc/dcmitype/StillImage" /></cc:Work></rdf:RDF></metadata><defs
     id="defs6" /><g
     transform="matrix(1.3333333,0,0,-1.3333333,0,2666.6667)"
     id="g10"><g
       transform="scale(0.1)"
       id="g12"><g
         transform="scale(1.84049)"
         id="g14"><path
           id="path16"
           style="fill:#ffffff;fill-opacity:1;fill-rule:nonzero;stroke:none"
           d="M 16300,0 H 0 V 10866.7 H 16300 V 0" /></g><g
         transform="scale(1.74078)"
         id="g18"><path
           id="path20"
           style="fill:#f0f3f9;fill-opacity:1;fill-rule:nonzero;stroke:none"
           d="M 16300,10507.8 V 996.795 H 865.009 V 10507.8 H 16300" /></g><g
         transform="scale(1.74078)"
         id="g22"><path
           id="path24"
           style="fill:#e9edf7;fill-opacity:1;fill-rule:nonzero;stroke:none"
           d="M 16300,1003.75 H 865.009 v 1067.56 c 357.191,-45.72 916.541,-106.5 1365.551,-106.5 169.96,0 324.06,8.73 445.48,30.27 201.17,35.62 529.32,70.61 921.36,100.02 l 956.46,-1059.64 h 3682.74 4472.1 l 795.5,978.81 c 125.5,0.98 235.1,2.64 326.1,5.11 98.7,2.7 198.1,3.91 297.1,3.91 909.9,0 1804.7,-104.26 2172.6,-152.92 v -866.62" /></g><path
         id="path26"
         style="fill:#e9edf7;fill-opacity:1;fill-rule:nonzero;stroke:none"
         d="M 5549.99,4436.2 H 2226.48 c 0,0 299.3,542.3 835.45,542.3 9.83,0 19.71,-0.2 29.7,-0.6 0,0 451.11,654.7 1357.54,677.8 L 5549.99,4436.2 M 10115,6000.9 6912.52,6324 c 435.41,394.1 1039.96,746.2 1823.85,774.2 51.85,1.8 102.99,2.7 153.11,2.7 830.49,0 1423.62,-246.8 1815.32,-502.6 l -119.6,-121.2 -470.2,-476.2" /><g
         transform="scale(1.62518)"
         id="g28"><path
           id="path30"
           style="fill:#e9edf7;fill-opacity:1;fill-rule:nonzero;stroke:none"
           d="M 16300,5932.21 H 9632.61 l -704.24,499.56 354.43,-499.56 v 0 L 8928.37,6431.76 8435.2,5932.21 H 2323.04 c 0,0 303.63,550.13 847.51,550.13 9.98,0 20.01,-0.19 30.14,-0.56 0,0 474.17,688.25 1427.1,688.25 952.92,0 1573.01,-471.68 1573.01,-471.68 0,0 864.7,1867.83 2726.22,1934.31 52.61,1.88 104.48,2.8 155.31,2.8 1748.37,0 2459.67,-1078.24 2459.67,-1078.24 0,0 285.3,95.95 720.2,95.95 642.6,0 1612,-209.41 2471,-1247.19 0,0 169.1,38.4 404.8,38.4 352,0 852.7,-85.55 1162,-512.17" /></g><g
         transform="scale(1.3023)"
         id="g32"><path
           id="path34"
           style="fill:#ecd165;fill-opacity:1;fill-rule:nonzero;stroke:none"
           d="M 16300,4367.5 11142,8026.39 14030.5,3954.92 16300,4367.5" /></g><g
         transform="scale(1.12098)"
         id="g36"><path
           id="path38"
           style="fill:#ecd165;fill-opacity:1;fill-rule:nonzero;stroke:none"
           d="m 16300,4594.66 -3172.6,131.49 -3484.9,144.43 -1052.68,43.62 347.4,351.75 505.63,512.14 136.04,137.83 3365.41,3408.78 2539.6,-3579.88 816.1,-1150.16" /></g><g
         transform="scale(1.19496)"
         id="g40"><path
           id="path42"
           style="fill:#e7c359;fill-opacity:1;fill-rule:nonzero;stroke:none"
           d="m 14907.2,4850.86 -2764.4,3896.5 3520.1,-2496.96 c -4.2,-55.9 -8.4,-114.4 -12.5,-175.32 0,0 -320.5,164.69 -1067,385.54 l -74.4,-235.74 c 0,0 9.4,-9.12 26.9,-25.69 158.1,-149.38 971.8,-900.53 1351.5,-900.53 40.3,0 75.8,8.45 105,27.03 58,36.9 132.4,183.43 208.6,372.14 0.3,-40.67 -0.5,-85.36 -1.9,-132.3 -0.1,-0.76 21.2,-439.18 100.9,-596.25 l -1392.8,-118.42" /></g><path
         id="path44"
         style="fill:#e7c359;fill-opacity:1;fill-rule:nonzero;stroke:none"
         d="m 14103.7,5598.4 -3988.7,402.5 470.2,476.2 c 938.6,-225 2236,-483.1 3518.8,-776.2 -0.1,-34.2 -0.2,-68.4 -0.3,-102.5" /><g
         transform="scale(1.49825)"
         id="g46"><path
           id="path48"
           style="fill:#e9edf7;fill-opacity:1;fill-rule:nonzero;stroke:none"
           d="m 16300,8593.76 h -3002.2 c 0,0 167,283.74 539.3,283.74 18.9,0 38.3,-0.74 58.3,-2.28 0,0 269,549.68 820,549.68 14.4,0 28.8,-0.37 43.5,-1.13 580.4,-30.03 770.5,-548.55 770.5,-548.55 0,0 73.2,22.15 180.8,22.15 162.4,0 403.2,-50.43 589.8,-303.61" /></g><path
         id="path50"
         style="fill:#dcabb0;fill-opacity:1;fill-rule:nonzero;stroke:none"
         d="m 13081.1,10835.3 c 0,0 -618.3,-1128.4 -579.6,-1308.2 38.7,-179.9 101.3,-263.1 101.3,-263.1 0,0 614.5,466.8 728.9,1099 114.4,632.2 -250.6,472.3 -250.6,472.3" /><path
         id="path52"
         style="fill:#dcabb0;fill-opacity:1;fill-rule:nonzero;stroke:none"
         d="m 14718.9,3385.4 -168.6,-710.2 -252.6,1.5 -9.2,708.7 h 430.4" /><path
         id="path54"
         style="fill:#575ba3;fill-opacity:1;fill-rule:nonzero;stroke:none"
         d="m 14422.2,2737.9 c 285.7,12.3 296.7,-278.3 296.7,-278.3 h -242.6 -108.1 -233.5 c 0,0 1.8,290.6 287.5,278.3" /><path
         id="path56"
         style="fill:#dcabb0;fill-opacity:1;fill-rule:nonzero;stroke:none"
         d="m 12526.9,3355.1 -412.2,-679.9 -252.5,1.5 203.3,771.9 461.4,-93.5" /><path
         id="path58"
         style="fill:#575ba3;fill-opacity:1;fill-rule:nonzero;stroke:none"
         d="m 11986.7,2737.9 c 285.7,12.3 296.7,-278.3 296.7,-278.3 h -242.6 -108.2 -233.4 c 0,0 1.8,290.6 287.5,278.3" /><path
         id="path60"
         style="fill:#b65224;fill-opacity:1;fill-rule:nonzero;stroke:none"
         d="m 13594.7,11159.5 c -32.2,66.5 -68.2,184.6 -85.8,395.2 2.7,-20.9 39,-286.5 141.1,-436.8 419.5,-275.4 1223.5,-1195 1207.6,-1369.3 0,0 88.8,83.3 217.6,201.7 l 29.8,179.1 c 15.7,-32.3 17.4,-93.5 16.4,-136.7 240.7,220.7 586,531.8 770.6,672.2 -23,75.2 -84.7,206.4 -86.7,211.2 53.9,-14.9 117.8,-113.7 148.9,-166.3 5.4,3.8 10.5,7.1 15.3,9.9 0,0 -54.9,434.1 -680.7,758.3 -328,169.9 -552.9,240.3 -539.8,455.9 13.3,215.7 -85.8,1143.8 -716.2,900.9 0,0 -101.1,45 -146.5,38.2 0,0 37.1,-7 55.9,-26.5 -73.1,4.4 -177.6,-1.1 -264.8,-50.6 -231.1,-131.3 -437.9,-1309.5 -82.7,-1636.4" /><path
         id="path62"
         style="fill:#cd8085;fill-opacity:1;fill-rule:nonzero;stroke:none"
         d="m 13839.2,11025.5 c 12.1,63.1 22.4,523.2 22.4,523.2 l 483.3,24 c 34.3,-162.5 26.9,-372.5 88.1,-384.7 2,-0.4 -92.6,-188.2 -237.3,-227.7 -154,-42 -362,36.5 -356.5,65.2" /><path
         id="path64"
         style="fill:#575ba3;fill-opacity:1;fill-rule:nonzero;stroke:none"
         d="m 14332.5,12609.1 c 0,0 -255,218.5 -516.9,-43.6 0,0 163.9,47 516.9,43.6" /><path
         id="path66"
         style="fill:#c4541c;fill-opacity:1;fill-rule:nonzero;stroke:none"
         d="m 14485.8,11746.5 c 0,0 63.5,161.2 96.3,345.9 23.4,131.8 -43.8,620.5 -534.8,550.1 0,0 -142.7,-14 -276.7,-104.6 -106.6,-72 -260.5,-227.5 -88.5,-653.9 l 44.7,-144 759,6.5" /><path
         id="path68"
         style="fill:#dcabb0;fill-opacity:1;fill-rule:nonzero;stroke:none"
         d="m 13810.8,11488.5 c 136.6,-112.3 307,-262.7 625.7,63.1 62.4,63.7 51.1,153.7 45.2,283.7 -6.8,153.8 23.1,250.6 -0.7,337.8 -28.3,104.4 -122.4,145.4 -311.6,147.7 -347.2,4 -515.8,-86.8 -479.8,-256.2 80.4,-378.3 -17.7,-461.9 121.2,-576.1" /><path
         id="path70"
         style="fill:#c4541c;fill-opacity:1;fill-rule:nonzero;stroke:none"
         d="m 14020.5,12335.3 c 0,0 170.8,-309.1 382.8,-363.6 212,-54.6 385.8,132.9 385.8,132.9 0,0 -664.3,406.2 -768.6,230.7" /><path
         id="path72"
         style="fill:#c4541c;fill-opacity:1;fill-rule:nonzero;stroke:none"
         d="m 14031.4,12316.7 c 0,0 -204.8,-11 -246.4,-82.9 -41.6,-71.9 -42.3,-148.9 -62.9,-189.2 -20.7,-40.3 -13.6,-83.2 -13.6,-83.2 0,0 -109,236.1 -68.2,301.8 128.6,207.4 391.1,53.5 391.1,53.5" /><path
         id="path74"
         style="fill:#575ba5;fill-opacity:1;fill-rule:nonzero;stroke:none"
         d="m 14111.7,3107.7 h 236.8 c 272.8,0 440.7,0 440.7,0 533.2,2423.5 576,3831.9 517.8,4587.6 -42.1,547.3 -139,739.5 -139,739.5 l -1052.6,12.6 c 0,0 -28.6,-5339.7 -3.7,-5339.7" /><path
         id="path76"
         style="fill:#575ba5;fill-opacity:1;fill-rule:nonzero;stroke:none"
         d="m 11883,3099.9 h 704.1 c 0,0 898.9,1843 1512.8,3464.6 279.7,738.7 500.1,1431.3 549.6,1882.9 h -1189.6 c 0,0 -1430.3,-4547.9 -1576.9,-5347.5" /><path
         id="path78"
         style="fill:#5153a0;fill-opacity:1;fill-rule:nonzero;stroke:none"
         d="m 12587.1,3099.9 c 0,0 898.9,1843 1512.8,3464.6 17.5,224.8 46.9,547.7 -94.1,659.9 0,0 -1497.6,-2772.8 -1418.7,-4124.5" /><path
         id="path80"
         style="fill:#5153a0;fill-opacity:1;fill-rule:nonzero;stroke:none"
         d="m 14348.5,3107.7 c 272.8,0 440.7,0 440.7,0 533.2,2423.5 576,3831.9 517.8,4587.6 -132.3,-673.4 -888.2,-4511.1 -958.5,-4587.6" /><path
         id="path82"
         style="fill:#dde3f2;fill-opacity:1;fill-rule:nonzero;stroke:none"
         d="m 13224.5,9786.1 c -0.1,-23.1 -0.1,-46.2 0,-69.4 3.8,-826.9 126,-1616.9 126,-1616.9 0,0 658.5,-25.8 1089.4,70.4 9.3,2.1 19.4,4.4 30.1,7.1 214.8,52.8 719.8,216.4 719.8,216.4 -12.7,33.5 -25.2,65.5 -37.7,96.2 -160.7,400.9 -282.7,576.7 -301.8,700 -35.3,230.1 -36.1,468.2 -18.5,692.7 46.5,594.5 221.4,1093.2 221.4,1093.2 -158.9,120.5 -434.1,217.3 -654.3,239.9 -49.7,-71.8 -131.1,-137.6 -262.8,-134.1 -151.6,3.8 -235.2,80.4 -280.2,151.5 -328.9,-9 -404.2,-25.5 -404.2,-25.5 -137.4,-277.1 -199.3,-680.7 -219.5,-1105.7 -5,-104.6 -7.3,-210.3 -7.7,-315.8" /><path
         id="path84"
         style="fill:#dde3f2;fill-opacity:1;fill-rule:nonzero;stroke:none"
         d="m 12897.4,10641.9 c 0,0 345.4,-343.8 348,-468.9 l 180.3,276.8 25.9,757.8 c 0,0 -186.8,-67.7 -554.2,-565.7" /><path
         id="path86"
         style="fill:#ced4ea;fill-opacity:1;fill-rule:nonzero;stroke:none"
         d="m 14649.5,9215.7 c 65.4,-92.5 190.7,-655.1 502.6,-725.8 -160.7,400.9 -282.7,576.7 -301.8,700 -35.3,230.1 -36.1,468.2 -18.5,692.7 -104.4,183 -182.3,308.5 -182.3,308.5 -8.2,29.6 -165.9,517.3 -216.5,81.3 -50.4,-436 143.5,-953.2 216.5,-1056.7" /><path
         id="path88"
         style="fill:#ced4ea;fill-opacity:1;fill-rule:nonzero;stroke:none"
         d="m 13224.5,9786.1 c -0.1,-23.1 -0.1,-46.2 0,-69.4 3.8,-826.9 126,-1616.9 126,-1616.9 0,0 658.5,-25.8 1089.4,70.4 9.3,2.1 19.4,4.4 30.1,7.1 -735.5,298.6 -1190.9,1659.1 -1237.8,1924.6 -4.8,-104.4 -7.1,-210.2 -7.7,-315.8" /><path
         id="path90"
         style="fill:#dcabb0;fill-opacity:1;fill-rule:nonzero;stroke:none"
         d="m 11933.8,10592.8 c 0,0 203.7,-1156.1 676.6,-1329.1 0,0 207.8,279.9 -104.9,770.4 -124,194.4 -304.1,414.6 -397.2,499.5 -141.7,129.3 -174.5,59.2 -174.5,59.2" /><path
         id="path92"
         style="fill:#dcabb0;fill-opacity:1;fill-rule:nonzero;stroke:none"
         d="m 11949.8,10516.2 c 0,0 -77.4,200.7 -43.5,263.5 33.8,62.9 125.7,229.7 183.7,217.6 58,-12.1 116,-99.1 67.7,-181.3 -48.4,-82.2 -29,-135.4 -62.9,-178.9 -33.8,-43.5 67.7,-157.1 67.7,-157.1 l -212.7,36.2" /><g
         transform="scale(1.25024)"
         id="g94"><path
           id="path96"
           style="fill:#9c5f33;fill-opacity:1;fill-rule:nonzero;stroke:none"
           d="m 15638.8,7400.98 c -59.5,212.12 -74.2,340.02 -74.2,340.02 l 381.9,380.68 c 33.5,-464.35 353.5,-655.43 353.5,-655.43 0,0 -527.4,-332.73 -859.8,-265.31 0,0 68.5,109.58 198.6,200.04" /></g><g
         transform="scale(1.23607)"
         id="g98"><path
           id="path100"
           style="fill:#ab7041;fill-opacity:1;fill-rule:nonzero;stroke:none"
           d="m 15642.8,7827 c 0,0 546.7,-32.44 561.7,308.32 14.9,340.75 95.5,566.06 -252.9,601.17 -348.4,35.11 -421.9,-91.95 -454.6,-204.46 -32.7,-112.53 4,-687.8 145.8,-705.03" /></g><g
         transform="scale(1.2594)"
         id="g102"><path
           id="path104"
           style="fill:#2b295e;fill-opacity:1;fill-rule:nonzero;stroke:none"
           d="m 15903.1,7961.52 c 0,0 -57.2,439.86 -545.1,459.81 -334.2,13.67 -164.1,309.73 -131.1,357.26 0,0 256.7,-21.39 520.1,-50.66 553,-61.45 206.3,-694.79 156.1,-766.41" /></g><g
         transform="scale(1.07552)"
         id="g106"><path
           id="path108"
           style="fill:#ab7041;fill-opacity:1;fill-rule:nonzero;stroke:none"
           d="m 16300,7029.65 -98.5,123.29 c 0,0 -67,337.52 -444.3,343.19 0,0 -154.7,-9.02 -100.7,-111.02 54,-101.91 47.7,-56.72 120.9,-201.76 73,-145.05 205.2,-251.33 321.7,-251.98 l 129.4,0.1 71.5,98.18" /></g><g
         transform="scale(1.3169)"
         id="g110"><path
           id="path112"
           style="fill:#575ba5;fill-opacity:1;fill-rule:nonzero;stroke:none"
           d="m 13165.6,5648.51 c 0,0 8.6,-8.28 24.4,-23.31 158.7,-149.98 1045.4,-968.19 1321.6,-792.62 52.7,33.49 120.2,166.45 189.3,337.68 0.3,-36.9 -0.4,-77.45 -1.7,-120.05 -0.1,-0.76 21.9,-452.12 106.4,-565.5 l 817.3,73.28 553.4,-47.08 c 50.3,205.03 123.7,589.57 119.4,1074.72 -4.1,477.49 -83.4,1052.41 -333.9,1649.79 0,0 -164.5,37.44 -595.4,-55.51 -55.6,-86.79 -176.7,-253.85 -314.8,-263.27 -93.1,-6.37 -154.1,62.12 -211.5,134.94 -164.3,-55.51 -327.6,-134.33 -462.3,-246.33 0,0 -94.9,-87.26 -176.4,-1292.67 0,0 -290.9,149.45 -968.3,349.84 l -67.5,-213.91" /></g><g
         transform="scale(1.19169)"
         id="g114"><path
           id="path116"
           style="fill:#5153a0;fill-opacity:1;fill-rule:nonzero;stroke:none"
           d="m 14575.9,6216.23 c 175.4,-165.73 1155.2,-1069.91 1460.4,-875.9 58.2,37.01 132.8,183.94 209.2,373.17 0.3,-40.78 54.5,643.79 -46.6,649.25 -103.5,5.62 -5,-778.15 -293.6,-833.28 -235.9,-44.98 -1042.1,489.48 -1329.4,686.76" /></g><g
         transform="scale(1.3169)"
         id="g118"><path
           id="path120"
           style="fill:#5153a0;fill-opacity:1;fill-rule:nonzero;stroke:none"
           d="m 15622.9,4557.99 553.4,-47.08 c 50.3,205.03 123.7,589.57 119.4,1074.72 -23.1,79.81 -64.2,156.36 -136.6,172.15 -149.1,32.58 -190.9,-950.34 -536.2,-1199.79" /></g><path
         id="path122"
         style="fill:#e5b0b4;fill-opacity:1;fill-rule:nonzero;stroke:none"
         d="m 2867.4,13506.6 -146.06,4.7 c 0,0 -278.3,244 -603.87,1.5 0,0 -126.03,-109 -13.13,-160.6 112.9,-51.5 77.89,-17.1 235.28,-92.9 157.4,-75.7 339.71,-79.8 439.48,-4 l 146.61,6.4 -58.31,244.9" /><path
         id="path124"
         style="fill:#cd8085;fill-opacity:1;fill-rule:nonzero;stroke:none"
         d="m 6778.83,14293.8 c 0,0 -0.32,-246.4 22.88,-325 l 68.33,-698.4 612.89,735 c 0,0 -162.08,204.6 -292.06,607.1 l -412.04,-318.7" /><path
         id="path126"
         style="fill:#e5b0b4;fill-opacity:1;fill-rule:nonzero;stroke:none"
         d="m 6631.42,14158.8 c 0,0 668.37,-30.5 680.98,386 12.61,416.5 107.37,693.1 -318.83,730.2 -426.2,37.1 -513.96,-119.3 -551.99,-257.3 -38.02,-138 16.31,-840.2 189.84,-858.9" /><path
         id="path128"
         style="fill:#555ca3;fill-opacity:1;fill-rule:nonzero;stroke:none"
         d="m 7312.4,14544.8 c 0,0 -49.96,555.8 -645.36,535.9 -595.4,-20 -337.84,543.2 173.78,626.2 0,0 -53.4,-198.5 268.45,-229.8 675.52,-65.8 263.15,-844.1 203.13,-932.3" /><path
         id="path130"
         style="fill:#2b295e;fill-opacity:1;fill-rule:nonzero;stroke:none"
         d="m 6549.39,10104.9 1994.29,85.7 c 0,0 -527.51,-3357.9 -1179.22,-6338.5 l -937.79,-67.8 122.72,6320.6" /><path
         id="path132"
         style="fill:#221e50;fill-opacity:1;fill-rule:nonzero;stroke:none"
         d="m 6543.49,9822.6 v 0 c 108.77,26.8 211.44,155.9 212.46,157.2 l 19.13,-15.1 c -4.4,-5.6 -114.78,-113.3 -231.59,-142.1" /><path
         id="path134"
         style="fill:#333381;fill-opacity:1;fill-rule:nonzero;stroke:none"
         d="m 8704.47,10207.1 c 0,0 717.46,-2435.8 884.44,-6280.9 L 8789.97,3829.4 7485.17,8765 c 0,0 -33.19,163.2 -52.84,201.6 -22.93,44.9 -117.46,131.6 -117.46,131.6 v 867.2 l 1389.6,241.7" /><path
         id="path136"
         style="fill:#221e50;fill-opacity:1;fill-rule:nonzero;stroke:none"
         d="m 8626.36,9678.2 c -452.33,-54.8 -688.62,249.6 -690.98,252.7 l 19.4,14.7 c 2.31,-3 239.62,-327.6 687.99,-265.2 -5.48,-0.8 -11,-1.5 -16.41,-2.2" /><path
         id="path138"
         style="fill:#2b295e;fill-opacity:1;fill-rule:nonzero;stroke:none"
         d="m 9318.38,4585.9 c -130.29,469 -258.86,1028.8 -363.47,1616.4 -15.98,89.8 -31.89,182.3 -47.27,274.9 -16.95,102.2 -33.48,205.7 -49.15,307.7 -5.38,35 -0.64,76.9 3.95,117.3 4.26,37.7 8.67,76.6 4.24,106.9 -56.81,388.2 -92.01,745.8 -123.08,1061.3 -8.15,82.7 -16.12,163.7 -24.25,243.1 -73.45,717 -117.55,1123 -118.21,1127 0.67,-4 67.31,-405.2 140.87,-1123.2 8.13,-79.4 16.11,-160.4 24.26,-243.2 31.03,-315.2 66.21,-672.4 122.92,-1060.1 4.95,-33.8 0.32,-74.5 -4.14,-113.9 -4.38,-38.7 -8.9,-78.6 -4.08,-110 15.64,-101.9 32.17,-205.3 49.1,-307.4 15.35,-92.5 31.24,-184.9 47.21,-274.6 104.45,-586.8 217.61,-1153.5 347.67,-1621.8 l -6.57,-0.4" /><path
         id="path140"
         style="fill:#e5b0b4;fill-opacity:1;fill-rule:nonzero;stroke:none"
         d="m 10136.3,10190.6 122,-117.9 c 0,0 354.7,-105.7 322.8,-510.4 0,0 -25.3,-164.7 -129,-96.6 -103.7,68.2 -56,56.8 -203.9,149.7 -147.9,93 -248.41,245.1 -237.4,369.9 l 13.1,138.6 112.4,66.7" /><path
         id="path142"
         style="fill:#dde3f2;fill-opacity:1;fill-rule:nonzero;stroke:none"
         d="m 10258.3,10072.8 -247.5,-87.5 c 0,0 -1014.47,1152.2 -1047.75,1225.4 -18.89,41.5 -310.38,488 -560.19,868.1 -0.2,-3.5 -0.4,-7 -0.5,-10.4 -13.4,-254.8 -22.19,-467.7 1.3,-577.8 86.56,-406.4 396.45,-1169.5 343.57,-1341.8 -0.6,-1.9 -2.4,-3.9 -5.4,-6 -117.35,-84.8 -2046.62,-440.8 -2192.46,-37.9 -380.86,1052.1 -536.5,1984.1 -596.78,2654.8 -1.99,22.6 -12.99,42.6 -29.39,56.4 -13.89,11.9 -31.68,19.3 -51.17,20.1 -525.51,21.9 -1194.55,82.2 -1313.6,85.6 -193.63,5.5 -1779.33,333.5 -1779.33,333.5 l -16.79,254.7 c 523.3,116.8 1916.07,208.9 1916.07,208.9 652.75,92.5 1109.08,140.3 1424.75,163.9 180.84,29.6 395.65,43.2 584.48,49.1 4.7,-10 78.57,-88.7 74.98,-167.8 65.67,-143.3 143.04,-285 229.21,-287.5 109.66,-3.2 692.14,446.5 692.14,446.5 0,0 589.77,-33.4 728.02,-186.6 84.16,-93.4 454.82,-425 1044.6,-1905.8 0,0 555.44,-935.3 801.74,-1757.9" /><path
         id="path144"
         style="fill:#ced4ea;fill-opacity:1;fill-rule:nonzero;stroke:none"
         d="m 8747.23,10148.8 c -0.6,-1.9 -2.4,-3.9 -5.4,-6 -92.46,6.3 -252.1,90.9 -452.73,492.5 -324.07,648.3 -122.05,1506.8 -32.08,1581.8 52.48,43.6 108.05,-57.1 145.34,-148.7 -13.4,-254.8 -22.19,-467.7 1.3,-577.8 86.56,-406.4 396.45,-1169.5 343.57,-1341.8" /><path
         id="path146"
         style="fill:#c3592d;fill-opacity:1;fill-rule:nonzero;stroke:none"
         d="m 7141.83,13607.3 -288.03,25.6 c 0,0 -35.87,-8.5 -28.17,-53.7 7.69,-45.1 104.58,-166.1 140.4,-171.6 35.82,-5.6 255.14,117.8 175.8,199.7" /><path
         id="path148"
         style="fill:#ced4ea;fill-opacity:1;fill-rule:nonzero;stroke:none"
         d="m 6791.01,13968.8 c 0,0 41.89,-236.8 190.75,-340.4 L 6786.92,13332 c 0,0 -271.64,275.8 -280.79,497.2 0,0 216.16,126.2 284.88,139.6" /><path
         id="path150"
         style="fill:#dde3f2;fill-opacity:1;fill-rule:nonzero;stroke:none"
         d="m 6801.71,13968.8 c 0,0 17.46,-223.9 166.32,-327.5 l -188.31,-270.4 c 0,0 -248.01,246.5 -287.32,471.3 0,0 240.6,113.2 309.31,126.6" /><path
         id="path152"
         style="fill:#ced4ea;fill-opacity:1;fill-rule:nonzero;stroke:none"
         d="m 7489.21,14019.6 c 0,0 -306.85,-337 -521.18,-378.3 l 150.41,-370.9 c 0,0 640.61,443.3 625.19,671 0,0 -184.47,81.5 -254.42,78.2" /><path
         id="path154"
         style="fill:#dde3f2;fill-opacity:1;fill-rule:nonzero;stroke:none"
         d="m 7464.65,14030.3 c 0,0 -282.29,-347.7 -496.62,-389 l 145.63,-329.8 c 0,0 620.84,412.9 605.41,640.5 0,0 -184.47,81.6 -254.42,78.3" /><path
         id="path156"
         style="fill:#d3652c;fill-opacity:1;fill-rule:nonzero;stroke:none"
         d="m 7013.89,13430.5 c 0,0 130.6,-448.2 398.57,-901.9 396.72,-671.8 924.96,-1223.6 1695.61,-1314.3 0,0 144.24,44.5 426.72,-220.7 0,0 -214.15,-257.3 -371.88,-262.4 -1263.57,-41 -2340.34,1467.8 -2249.92,2720.9 3.05,42.3 79.37,26.4 100.9,-21.6" /><path
         id="path158"
         style="fill:#ced4ea;fill-opacity:1;fill-rule:nonzero;stroke:none"
         d="m 5923.2,12816.1 c -13.89,11.9 -31.68,19.3 -51.17,20.1 -525.51,21.9 -1194.55,82.2 -1313.6,85.6 -193.63,5.5 -1779.33,333.5 -1779.33,333.5 20,165.2 1684.36,-223.5 1819.31,-238.5 134.95,-15 1214.54,59.9 1319.5,-55 56.67,-62.1 36.18,-112.5 5.29,-145.7" /><g
         transform="scale(1.59077)"
         id="g160"><path
           id="path162"
           style="fill:#ecd165;fill-opacity:1;fill-rule:nonzero;stroke:none"
           d="M 16300,4077.64 13907.1,1133.1 H 4983.28 L 2224.47,4189.47 9262.23,3479.25 16300,4077.64" /></g><g
         transform="scale(1.59077)"
         id="g164"><path
           id="path166"
           style="fill:#e7c359;fill-opacity:1;fill-rule:nonzero;stroke:none"
           d="M 13907.1,1133.1 H 9013.29 L 9262.23,3479.25 16300,4077.64 13907.1,1133.1" /></g><g
         transform="scale(1.03339)"
         id="g168"><path
           id="path170"
           style="fill:#333381;fill-opacity:1;fill-rule:nonzero;stroke:none"
           d="m 16201.2,2272.33 72.7,41.33 c 19.3,10.93 26.1,35.6 15.1,54.86 l -4576.4,8048.18 c -11.1,19.4 -35.8,26.1 -55.2,15 l -11.5,-6.6 c -19.1,-11 -25.8,-35.3 -15,-54.6 l 4515.2,-8082.78 c 11,-19.54 35.6,-26.42 55.1,-15.39" /></g><g
         transform="scale(1.76098)"
         id="g172"><path
           id="path174"
           style="fill:#cfd4ec;fill-opacity:1;fill-rule:nonzero;stroke:none"
           d="M 16265.5,1026.02 747.455,1025 c -17.127,0 -31.131,-14.54 -31.131,-32.255 v -2.043 c 0,-17.717 14.004,-32.255 31.131,-32.255 H 16265.5 c 19,0 34.5,15.219 34.5,33.788 0,18.565 -15.5,33.785 -34.5,33.785" /></g><g
         transform="scale(1.09864)"
         id="g176"><path
           id="path178"
           style="fill:#c55e1e;fill-opacity:1;fill-rule:nonzero;stroke:none"
           d="m 14838.1,1657.77 -104.9,194.88 c -167.9,311.56 -50.3,703.86 261.4,871.71 311.6,167.84 703.9,50.15 871.7,-261.41 l 433.7,-805.18 h -1461.9" /></g><g
         transform="scale(1.58106)"
         id="g180"><path
           id="path182"
           style="fill:#cfd4ec;fill-opacity:1;fill-rule:nonzero;stroke:none"
           d="m 16300,7097.88 c 0,-1.08 -0.1,-2.15 -0.4,-3.23 l -16.5,-67.84 v -0.06 l -7.1,-29.21 v -0.06 l -83.9,-343.94 -4.4,-17.96 -2.4,-9.8 -4.6,-19.15 -628.1,-2576.05 -87.7,-7.46 681.4,2591.47 v 0.06 l 5.6,21.31 97.6,371.12 7.2,27.45 17.8,67.52 c 1.8,6.7 8.5,10.69 15.2,9.04 6.2,-1.58 10.3,-7.08 10.3,-13.21" /></g><g
         transform="scale(1.67741)"
         id="g184"><path
           id="path186"
           style="fill:#c55e1e;fill-opacity:1;fill-rule:nonzero;stroke:none"
           d="m 16300,6441.32 c 0,0 -202.9,-56.44 -435.4,95.59 -198.9,130.03 -448.8,98.22 -516.8,86.3 -0.7,0.12 -21.1,4.09 -24.8,7.26 l -6.8,-25.87 c 0,0 14.3,-10.54 24.9,-9.05 v 0.05 -0.11 c 48.6,-128.97 -56.8,-293.98 -94.9,-347.31 v -0.06 -0.03 l -22,6.7 -5.3,-20.08 v -0.06 c 0,0 18.2,-7.57 32.3,-7.51 l 2.6,9.95 c 62.1,16.92 257.2,53.43 481.8,-74.19 269.4,-153.03 526.8,-119.54 526.8,-119.54 l -97.5,210.3 135.1,187.66" /></g><g
         transform="scale(1.58958)"
         id="g188"><path
           id="path190"
           style="fill:#b65224;fill-opacity:1;fill-rule:nonzero;stroke:none"
           d="m 16292.3,6784.1 c -7.9,-89.61 -203.7,-190.74 -203.7,-190.74 v 0.07 c 40.2,56.28 151.5,230.41 100.2,366.5 3.3,-2.52 111.2,-87.6 103.5,-175.83" /></g><path
         id="path192"
         style="fill:#2b295e;fill-opacity:1;fill-rule:nonzero;stroke:none"
         d="m 8543.73,5098.5 -0.12,50 c 873.96,2 4027.19,595.5 4059.39,601.7 l 83.1,-8.4 c -32.3,-6.2 -3263.75,-641.3 -4142.37,-643.3" /><path
         id="path194"
         style="fill:#cfd4ec;fill-opacity:1;fill-rule:nonzero;stroke:none"
         d="m 8993.08,3539.8 c -121.71,-290.8 -351.51,-525.3 -639.13,-653.3 -153.56,-68.3 -323.61,-106.3 -502.51,-106.3 -157.5,0 -308.18,29.4 -446.71,83.1 -294.23,114 -534.04,337.3 -669.49,620.1 -77.53,161.6 -120.97,342.8 -120.97,534 0,153.6 28.01,300.8 79.12,436.5 121.4,321.6 372.82,579.3 690.15,709 144.39,59.2 302.31,91.7 467.9,91.7 188.05,0 366.21,-42 525.83,-117 271.12,-127.4 488.45,-350.5 608.57,-625.6 66.24,-151.5 102.87,-318.8 102.87,-494.6 0,-169.3 -33.97,-330.6 -95.63,-477.6 z m 509.22,1208.1 c -175.38,401.3 -490.8,727.2 -884.59,916 -238.63,114.6 -506.12,178.7 -788.42,178.7 -235.12,0 -459.81,-44.4 -666.18,-125.4 C 6689.35,5531.4 6312.17,5153.2 6127.63,4678.9 6047.76,4473.8 6004,4250.8 6004,4017.4 c 0,-281.7 63.78,-548.5 177.83,-786.7 202.01,-422.2 561.5,-754.7 1002.57,-921.3 200.52,-75.7 417.86,-117.1 644.89,-117.1 273.24,0 532.54,60 765.21,167.7 418.71,193.6 751.58,541 926.01,970 86.37,212.1 133.96,444.2 133.96,687.4 0,259.8 -54.3,506.9 -152.17,730.5" /><path
         id="path196"
         style="fill:#c2541e;fill-opacity:1;fill-rule:nonzero;stroke:none"
         d="m 8617.71,5664 -240.44,-526.4 c -159.62,75.1 -337.78,117.1 -525.83,117.1 -165.59,0 -323.51,-32.5 -467.9,-91.7 l -220.43,554.2 c 206.37,81.1 431.06,125.5 666.18,125.5 282.3,0 549.79,-64.1 788.42,-178.7" /><path
         id="path198"
         style="fill:#c2541e;fill-opacity:1;fill-rule:nonzero;stroke:none"
         d="m 8594.5,2360 c -232.67,-107.7 -491.97,-167.7 -765.21,-167.7 -227.03,0 -444.37,41.4 -644.89,117.1 l 220.33,553.9 c 138.53,-53.7 289.21,-83.1 446.71,-83.1 178.9,0 348.95,38 502.51,106.3 L 8594.5,2360" /><path
         id="path200"
         style="fill:#c2541e;fill-opacity:1;fill-rule:nonzero;stroke:none"
         d="M 6735.24,3495.4 6181.83,3242.7 C 6067.78,3481 6004,3747.7 6004,4029.5 c 0,233.3 43.76,456.4 123.63,661.5 l 565.76,-225 c -51.11,-135.8 -79.12,-283 -79.12,-436.5 0,-191.3 43.44,-372.4 120.97,-534.1" /><path
         id="path202"
         style="fill:#c2541e;fill-opacity:1;fill-rule:nonzero;stroke:none"
         d="m 9654.47,4029.5 c 0,-243.3 -47.59,-475.4 -133.96,-687.5 l -527.43,209.9 c 61.66,146.9 95.63,308.3 95.63,477.6 0,175.8 -36.63,343.1 -102.87,494.5 l 516.46,236 c 97.87,-223.7 152.17,-470.8 152.17,-730.5" /><path
         id="path204"
         style="fill:#2b295e;fill-opacity:1;fill-rule:nonzero;stroke:none"
         d="m 8459.84,5094.9 c -394,28.4 -1305.08,196.6 -3026.67,813.5 -1028.48,368.5 -1872.51,751 -1881.15,754.6 l 73.43,-7.4 c 8.63,-3.6 797.48,-332.1 1824.79,-700.2 1358.23,-486.8 2397.15,-736.6 2927.03,-817.8 l 28.5,-13.9 54.07,-28.8" /><g
         transform="scale(1.45119)"
         id="g206"><path
           id="path208"
           style="fill:#2b295e;fill-opacity:1;fill-rule:nonzero;stroke:none"
           d="m 16223.6,1516 76.4,88.75 -4953.8,4262.71 c -10.8,9.3 -27.1,8.06 -36.4,-2.76 -11.6,-13.36 -10.1,-33.49 3.1,-45.06 L 16223.6,1516" /></g><g
         transform="scale(1.31247)"
         id="g210"><path
           id="path212"
           style="fill:#ab7041;fill-opacity:1;fill-rule:nonzero;stroke:none"
           d="m 16222.3,3962.85 -104.6,-76.05 c 0,0 -278.7,-42.43 -297.3,-351.17 0,0 1.7,-126.93 87.1,-86.48 85.4,40.54 48.3,36.96 169.7,91.51 121.4,54.48 213.3,158.71 218.1,254.1 l 4.7,105.91 -77.7,62.18" /></g><g
         transform="scale(1.38115)"
         id="g214"><path
           id="path216"
           style="fill:#575ba5;fill-opacity:1;fill-rule:nonzero;stroke:none"
           d="m 15219.2,6898.83 c 0,0 -267.3,-406.83 -119.7,-756.33 213.4,-505.66 632.4,-1162.87 632.4,-1162.87 -194,-445.06 -401.4,-1269.53 -401.4,-1269.53 l 159,-80 c 0,0 722.8,746.12 784.9,1411.07 25.6,275.06 -483.5,1553.64 -1055.2,1857.66" /></g><g
         transform="scale(1.52133)"
         id="g218"><path
           id="path220"
           style="fill:#c55e1e;fill-opacity:1;fill-rule:nonzero;stroke:none"
           d="m 15336.4,1214.99 c 0.8,103.47 41,206.6 120.5,284.1 158,153.94 413.2,150.66 567.2,-7.3 l 275.9,-283.17 -963.6,6.37" /></g><g
         transform="scale(1.59982)"
         id="g222"><path
           id="path224"
           style="fill:#c2cbea;fill-opacity:1;fill-rule:nonzero;stroke:none"
           d="m 15306.3,1290.46 c -425,-81.26 -949.8,-100.02 -1231,-12.51 -281.1,87.45 -952.6,45.2 -1312.1,-87.51 -359.5,-132.7 -1503.8,193.71 -1814.1,162.46 -310.4,-31.25 -891.4,-199.9 -1035.19,-174.96 -143.7,25.01 -793.52,172.21 -1230.88,64.26 -437.36,-107.95 -2031.54,155.21 -2518.93,-113.64 l 10135.9,0.69 c 0,0 -568.9,242.4 -993.7,161.21" /></g><path
         id="path226"
         style="fill:#dcabb0;fill-opacity:1;fill-rule:nonzero;stroke:none"
         d="m 13301,8122.9 c 111.4,250.2 355.8,198.6 355.8,198.6 l 12,5.5 c 162.2,167.1 787.1,760.7 921.9,941.8 20.1,27 -55.3,1866.6 -55.3,1866.6 0,0 224.9,-51.3 450.4,-161.2 0,0 322.4,-551.6 -8.3,-1947.1 0,0 -449.5,-335.8 -1189.3,-807.2 l -12.8,-29.9 c -33.7,-77.6 -142.3,-135.4 -259.9,-142.9 -117.7,-7.4 -85.7,-16.1 -169.1,-23.1 -83.5,-7 -45.4,98.9 -45.4,98.9" /><path
         id="path228"
         style="fill:#dde3f2;fill-opacity:1;fill-rule:nonzero;stroke:none"
         d="m 15174.5,10409.7 c 0.7,-45 -366,-48.6 -603.1,-166.7 l -171.3,972.6 c 1,-0.4 435.6,-129.3 654.3,-239.8 0,0 131.2,-242.8 120.1,-566.1" /></g></g></svg>