<?xml version="1.0" encoding="UTF-8" standalone="no"?>
<svg
   xmlns:dc="http://purl.org/dc/elements/1.1/"
   xmlns:cc="http://creativecommons.org/ns#"
   xmlns:rdf="http://www.w3.org/1999/02/22-rdf-syntax-ns#"
   xmlns:svg="http://www.w3.org/2000/svg"
   xmlns="http://www.w3.org/2000/svg"
   viewBox="0 0 4266.6665 2133.3333"
   height="2133.3333"
   width="4266.6665"
   xml:space="preserve"
   id="svg2"
   version="1.1"><metadata
     id="metadata8"><rdf:RDF><cc:Work
         rdf:about=""><dc:format>image/svg+xml</dc:format><dc:type
           rdf:resource="http://purl.org/dc/dcmitype/StillImage" /></cc:Work></rdf:RDF></metadata><defs
     id="defs6" /><g
     transform="matrix(1.3333333,0,0,-1.3333333,0,2133.3333)"
     id="g10"><g
       transform="scale(0.1)"
       id="g12"><g
         transform="scale(1.96319)"
         id="g14"><path
           id="path16"
           style="fill:#ffffff;fill-opacity:1;fill-rule:nonzero;stroke:none"
           d="M 0,8150 V 0 H 16300 V 8150 H 0" /></g><g
         transform="scale(1.77226)"
         id="g18"><path
           id="path20"
           style="fill:#ebf2f9;fill-opacity:1;fill-rule:nonzero;stroke:none"
           d="m 16125.4,818.332 -3513.6,1.071 -2983.61,0.847 -410.94,0.114 -6958.67,2.088 c 0,0 -366.89,907.148 -268.57,1888.088 12.26,122.67 31.81,246.52 60.32,369.87 0.1,0.4 0.15,0.73 0.27,1.07 17.48,75.73 38.33,151.28 62.92,226.27 104.02,317.25 274.92,624.59 541.16,893.27 1614.38,1629.21 3700.58,267.38 4483.42,307.07 782.73,39.74 826.91,1602.98 3165.8,1789.68 1297.3,103.53 2689.9,-138.77 3139.7,-1226.74 177.2,-428.74 208,-988.74 28.9,-1710.64 -104.2,-419.86 -14.8,-676.7 183.9,-843.1 412.8,-345.66 1297.6,-300.97 1900.9,-516.18 449.5,-160.3 742.7,-464.94 568.1,-1182.778" /></g><g
         transform="scale(1.48483)"
         id="g22"><path
           id="path24"
           style="fill:#f8fbff;fill-opacity:1;fill-rule:nonzero;stroke:none"
           d="M 16300,3004.58 4194.61,1431.88 c -109.84,397.82 -166.28,829.85 -137.9,1290.24 L 16046,6052.66 c 211.4,-511.72 248.3,-1180.13 34.5,-2041.78 -124.4,-501.13 -17.7,-807.7 219.5,-1006.3" /></g><g
         transform="scale(1.02369)"
         id="g26"><path
           id="path28"
           style="fill:#f8fbff;fill-opacity:1;fill-rule:nonzero;stroke:none"
           d="M 16300,7892.58 3445.19,4692.62 c 21.24,212.36 55.08,426.78 104.43,640.33 0.18,0.68 0.27,1.27 0.47,1.85 30.26,131.1 66.35,261.9 108.93,391.72 L 16300,7892.58" /></g><g
         transform="scale(1.00218)"
         id="g30"><path
           id="path32"
           style="fill:#c9e0f2;fill-opacity:1;fill-rule:nonzero;stroke:none"
           d="m 16300,1450.54 -12305.9,3.89 c 0,0 -821.24,2030.58 -368.28,3993.01 0.19,0.69 0.28,1.29 0.48,1.89 760.38,35.42 2009.64,-53.98 3324.75,-801.85 2076.84,-1181.03 5486.55,-316.91 6473.45,-979.37 986.8,-662.55 1213.4,-1348.46 1947.3,-1466.41 640.2,-102.77 878.1,-620.54 928.1,-750.96 0.1,-0.1 0.1,-0.1 0.1,-0.2" /></g><g
         transform="scale(1.34965)"
         id="g34"><path
           id="path36"
           style="fill:#f8fbff;fill-opacity:1;fill-rule:nonzero;stroke:none"
           d="m 15790.2,6987.94 c 0,140.76 114.1,254.86 254.9,254.86 140.8,0 254.9,-114.1 254.9,-254.86 0,-140.76 -114.1,-254.87 -254.9,-254.87 -140.8,0 -254.9,114.11 -254.9,254.87" /></g><g
         transform="scale(1.28121)"
         id="g38"><path
           id="path40"
           style="fill:#a8d29f;fill-opacity:1;fill-rule:nonzero;stroke:none"
           d="m 15690.6,1901.24 c 266.5,83.6 609.4,219.56 422.9,321.65 -199.7,109.35 -454.4,-122.69 -592.4,-276.22 -7.1,1.17 -14.3,2.34 -21.6,3.35 -35.3,5.08 -71.1,7.42 -107.3,7.58 263.2,421.86 556.7,983.44 306.7,1054.85 -269.3,76.96 -462.3,-605.91 -557.6,-1084.2 -263.3,-57.13 -546.6,-184.9 -841.7,-270.06 -104.2,379.25 -344.2,944.81 -847.2,932.32 -528.2,-13.11 131.2,-626.98 575.5,-994.91 -99.3,-16.08 -199.6,-23.81 -300.7,-19.13 -645.9,30.05 -1050.5,-407.73 -1050.5,-407.73 h 3468.6 c 130.3,206.52 -67,587.25 -454.7,732.5" /></g><path
         id="path42"
         style="fill:#ffb27d;fill-opacity:1;fill-rule:nonzero;stroke:none"
         d="m 12571.5,13343.6 c 0,0 -309.8,337.9 -405.5,349.2 -95.7,11.3 -489.9,-177.6 -512.5,-252.1 -22.5,-74.5 433.7,74.5 459,0 25.4,-74.5 53.5,-125.2 183,-130.9 129.6,-5.6 242.2,-78.8 242.2,-78.8 l 33.8,112.6" /><path
         id="path44"
         style="fill:#233862;fill-opacity:1;fill-rule:nonzero;stroke:none"
         d="m 12943.1,1497.4 c -98.4,60.1 -42.4,508.2 -42.4,508.2 0,0 458.6,366.9 521.6,86 63.1,-280.9 435.7,-407 647.8,-441.4 146.5,-23.7 191.8,-104.8 205.8,-152.8 h -1332.8" /><path
         id="path46"
         style="fill:#2b478b;fill-opacity:1;fill-rule:nonzero;stroke:none"
         d="m 12860.9,1782.2 c -117.5,44.4 -771.9,1615.2 -744.6,2125.3 3.2,60.5 -8.6,556.8 -27.3,659.6 -14.5,80.1 -34,173.5 -57.3,277 -35.8,157.6 -80.4,339 -130.1,533.7 -139.1,546.9 -316.3,1197.18 -438.6,1714.85 219.4,491.97 500.5,922.58 758.4,1069.62 184,-22.45 361.4,-56.45 492.8,-84.88 104.7,-61.47 182.9,-114.12 241,-159 20.4,-102 50.2,-272.16 74.3,-491.28 15.5,-143.36 28.5,-307.79 34.6,-487.61 43.7,-1276 -179.4,-2662.5 389.4,-4925.6 16,-63.1 -410.6,-300.3 -592.6,-231.7" /><path
         id="path48"
         style="fill:#233862;fill-opacity:1;fill-rule:nonzero;stroke:none"
         d="m 13029.5,7427.11 c -94.8,-474.42 -322.9,-1488.31 -1127.9,-2049.31 -139.1,546.9 -316.3,1197.18 -438.6,1714.85 219.4,491.97 500.5,922.58 758.4,1069.62 184,-22.45 361.4,-56.45 492.8,-84.88 104.7,-61.47 182.9,-114.12 241,-159 20.4,-102 50.2,-272.16 74.3,-491.28" /><path
         id="path50"
         style="fill:#ffb27d;fill-opacity:1;fill-rule:nonzero;stroke:none"
         d="m 12039.8,11890.4 -0.4,-79.6 c 0,0 21.6,-248.9 -284.8,-285.2 -306.5,-36.5 -538.7,97 -530.4,289.1 27.6,148.7 57.9,250.8 60,373.8 0.7,45.8 -2.4,94.3 -10.9,149.1 l 593.8,11.8 175,-28.6 -2.3,-430.4" /><path
         id="path52"
         style="fill:#e8945b;fill-opacity:1;fill-rule:nonzero;stroke:none"
         d="m 12042.1,12320.8 -2.3,-430.4 c -63.1,-29.4 -134.3,-47.3 -214.1,-47.3 -272.9,0 -449.3,200.2 -541.5,345.4 0.7,45.8 -2.4,94.3 -10.9,149.1 l 593.8,11.8 175,-28.6" /><path
         id="path54"
         style="fill:#ffb27d;fill-opacity:1;fill-rule:nonzero;stroke:none"
         d="m 12076.7,12111.7 c 0,0 -760.5,-153.7 -848.9,321.4 -88.4,475.1 -246.1,775.3 235.7,893.5 481.9,118.2 610.3,-45.5 678.3,-196.9 68.1,-151.4 130.5,-965.8 -65.1,-1018" /><path
         id="path56"
         style="fill:#233862;fill-opacity:1;fill-rule:nonzero;stroke:none"
         d="m 11529.1,1497.4 c 0,0 -41.5,227.4 -107.4,359.1 -65.8,131.6 -484.6,47.8 -484.6,47.8 0,0 -83.8,-71.8 -101.8,-406.9 h 693.8" /><path
         id="path58"
         style="fill:#2b478b;fill-opacity:1;fill-rule:nonzero;stroke:none"
         d="m 12349.9,7910.82 c 0,0 -416.9,-1857.54 -550.6,-2696.02 -50,-313.7 -154.2,-1318.8 -170.4,-1636 -22.4,-435.4 -165.9,-1767.9 -165.9,-1767.9 0,0 -242.2,153 -601.5,10.2 0,0 -90.7,597.3 -148.5,1848.3 -16.9,366.8 54,917.6 45.4,1096.5 -42.3,879.8 -323.4,3154.47 -99.9,3300.45 223.4,145.97 1691.4,-155.53 1691.4,-155.53" /><path
         id="path60"
         style="fill:#233862;fill-opacity:1;fill-rule:nonzero;stroke:none"
         d="m 12289.7,13482.6 c 0,0 -212.1,16.4 -462.2,125.1 -203.1,88.3 -459.2,-8.9 -542.4,-52.7 2.2,13.4 7.6,31.7 20.3,50 0,0 -37.3,-26.5 -42.9,-63.5 -3.8,-2.8 -5.5,-4.8 -4.5,-5.4 0,0 -42.3,7.7 -69.5,-4.5 0,0 19,2.7 25.8,-9.5 0.7,-1.3 1.8,-2.4 3,-3.4 -316.7,-153 -345.9,-653.6 -244,-769.4 122.6,-139.4 269.6,-453.1 269.6,-453.1 0,0 53.7,74.1 31.4,196.7 -22.3,122.6 83.6,122.6 217.4,178.4 133.7,55.7 22.3,211.8 139.3,306.5 117.1,94.8 546.2,39.1 540.7,111.5 159.3,58 118,377 118,393.3" /><path
         id="path62"
         style="fill:#ee9849;fill-opacity:1;fill-rule:nonzero;stroke:none"
         d="m 12492.7,13508 c 0,0 -64,-26 -102.5,-116.6 -49.2,-115.9 -9.1,-179.1 -9.1,-179.1 0,0 804.9,-730 752.5,-862.9 -27.3,-69.4 -650.9,-435.1 -910,-584.7 -106.6,8.9 -189,8.2 -191.7,8.2 l -0.1,-0.2 c 0,0 -176.3,-537.1 -807.5,41.9 -110.9,-161.3 -970.4,-557.4 -821.1,-1241 35.1,-160.6 65.4,-312.1 91.5,-455.1 177.4,-968.54 163.5,-1539.94 128.9,-1855.08 -26.9,-245.92 -128.9,-270.67 -37.6,-336.1 0,0 177.5,-79.57 509.6,-148.38 246.9,-51.15 579.1,-96.58 987.3,-99.15 649.4,-4.09 895.1,219.65 895.1,219.65 172,168.12 -168.1,829.68 -140.9,1307.23 14,244.99 -1.3,1083.73 -3.8,1469.13 0.1,0 0.2,0.1 0.3,0.2 0.1,0.2 0.3,0.3 0.5,0.6 31.2,34.1 981.1,1079.3 1168.1,1672.6 0,0.1 0.2,0.1 0.2,0.2 9.3,30 16.8,58.7 22.1,86.1 56.8,292 -1531.8,1072.5 -1531.8,1072.5" /><path
         id="path64"
         style="fill:#e58638;fill-opacity:1;fill-rule:nonzero;stroke:none"
         d="m 10623.6,8263.42 c 34.6,315.14 48.5,886.54 -128.9,1855.08 12.1,38.6 24.2,75.6 36.1,110.9 53.8,159.7 282.3,151.7 324.5,-11.4 131.1,-506.8 249.1,-1368.29 -231.7,-1954.58" /><path
         id="path66"
         style="fill:#ffb27d;fill-opacity:1;fill-rule:nonzero;stroke:none"
         d="m 10429.7,8792.95 c 0,0 394.8,238.66 517.2,208.4 122.3,-30.25 387.8,-145.63 371.3,-216.17 -16.4,-70.55 -324.8,-118.68 -378.4,-110.38 -53.7,8.3 -140.3,-1.44 -175.5,-31.76 -35.1,-30.33 -314.9,-41.65 -349,40.25 -34.2,81.9 14.4,109.66 14.4,109.66" /><path
         id="path68"
         style="fill:#ee9849;fill-opacity:1;fill-rule:nonzero;stroke:none"
         d="m 11224.2,11814.7 c 0,0 -484,-35.1 -746.9,-189.2 -170.2,-99.8 -1156.15,-1670.75 -1156.15,-1901.96 0,-231.24 1035.35,-1051.48 1035.35,-1051.48 0,0 192.2,-63.84 199,242.19 0,0 -516.5,763.46 -489.3,851.88 17.1,55.54 778.3,666.17 778.3,666.17 l 379.7,1382.4" /><path
         id="path70"
         style="fill:#e58638;fill-opacity:1;fill-rule:nonzero;stroke:none"
         d="m 14002.2,12349.2 c -187,-593.3 -1136.9,-1638.5 -1168.1,-1672.6 -0.2,-0.3 -0.4,-0.4 -0.5,-0.6 -0.1,-0.1 -0.3,-0.2 -0.3,-0.2 0,0 0,0.1 -0.1,0.2 -2.7,10.5 -81.1,309.5 105.9,523.3 190.5,217.6 847.5,763 1063.1,1149.9" /><path
         id="path72"
         style="fill:#e58638;fill-opacity:1;fill-rule:nonzero;stroke:none"
         d="m 11041.7,11725.2 c -2,41.9 196.6,99.9 196.6,99.9 0,0 227.4,-315.2 601.9,-320.7 0,0 -106.7,-207.7 -232.5,-261.5 0,0 -553.6,233.3 -566,482.3" /><path
         id="path74"
         style="fill:#e58638;fill-opacity:1;fill-rule:nonzero;stroke:none"
         d="m 11840.2,11511.8 c 0,0 198.5,117.6 199.2,245.1 0,0 128.1,16.1 184.1,-46.1 0,0 47,-218.5 -15.4,-345.5 0,0 -285.7,43.6 -367.9,146.5" /><path
         id="path76"
         style="fill:#c65447;fill-opacity:1;fill-rule:nonzero;stroke:none"
         d="m 12530.1,8550.68 c -3.8,-102.97 -45.8,-200.89 -117.9,-274.62 l -113.3,-115.87 c -28.4,-29.12 -75.6,-27.75 -102.4,2.85 l -157.2,179.54 c -42.2,48.14 -64.1,110.72 -61.4,174.64 6.4,142.41 17.9,416.74 24.6,681.3 5.6,214.35 8.2,422.46 2.6,548.68 -17.8,403 -164.8,1683.4 -164.8,1683.4 h 96.8 c 0,0 265.9,-486.1 427,-1158 39.7,-165.4 72.9,-341.92 94.4,-525.4 0,0 88.6,-731.08 71.6,-1196.52" /><path
         id="path78"
         style="fill:#ba4c43;fill-opacity:1;fill-rule:nonzero;stroke:none"
         d="m 11705.5,11530.7 269.1,64.5 c 0,0 35.2,-3.1 34.2,-46.9 -1,-43.8 -75.8,-171.9 -108.9,-182.1 -33.2,-10.3 -258,75.8 -194.4,164.5" /><path
         id="path80"
         style="fill:#ee9849;fill-opacity:1;fill-rule:nonzero;stroke:none"
         d="m 11041.7,11786.4 c -2,42 196.6,99.9 196.6,99.9 0,0 227.4,-315.2 601.9,-320.7 0,0 -106.7,-207.7 -232.5,-261.5 0,0 -553.6,233.3 -566,482.3" /><path
         id="path82"
         style="fill:#ee9849;fill-opacity:1;fill-rule:nonzero;stroke:none"
         d="m 11840.2,11565.6 c 0,0 198.5,117.7 199.2,245.2 0,0 128.1,16 184.1,-46.1 0,0 47,-218.6 -15.4,-345.5 0,0 -285.7,43.5 -367.9,146.4" /><path
         id="path84"
         style="fill:#ba4c43;fill-opacity:1;fill-rule:nonzero;stroke:none"
         d="m 12530.1,8550.68 c -3.8,-102.97 -45.8,-200.89 -117.9,-274.62 l -113.3,-115.87 c -28.4,-29.12 -75.6,-27.75 -102.4,2.85 l -157.2,179.54 c -42.2,48.14 -64.1,110.72 -61.4,174.64 6.4,142.41 17.9,416.74 24.6,681.3 251.3,313.77 337.8,733.79 361.6,1074.08 39.7,-165.4 72.9,-341.92 94.4,-525.4 0,0 88.6,-731.08 71.6,-1196.52" /><path
         id="path86"
         style="fill:#233862;fill-opacity:1;fill-rule:nonzero;stroke:none"
         d="M 10109.5,1497.4 H 8463.7 c -89.76,0 -163.21,73.5 -163.21,163.3 v 1105.7 c 0,89.8 73.45,163.2 163.21,163.2 h 1645.8 c 89.7,0 163.2,-73.4 163.2,-163.2 V 1660.7 c 0,-89.8 -73.5,-163.3 -163.2,-163.3" /><path
         id="path88"
         style="fill:#2b478b;fill-opacity:1;fill-rule:nonzero;stroke:none"
         d="M 10123.1,2766.4 V 1660.6 c 0,-89.8 -73.5,-163.2 -163.24,-163.2 H 8314.09 c -89.76,0 -163.21,73.4 -163.21,163.2 v 1105.8 c 0,89.8 73.45,163.2 163.21,163.2 h 1645.77 c 89.74,0 163.24,-73.4 163.24,-163.2" /><path
         id="path90"
         style="fill:#233862;fill-opacity:1;fill-rule:nonzero;stroke:none"
         d="m 8777.39,2929.6 c 105.29,124.4 242.41,173.4 330.13,173.4 214.6,0 334.39,-166.9 338.89,-173.4 l -52.28,-3.5 c -3.84,5.5 -88.74,112.3 -274.15,112.3 -76.2,0 -188,-0.3 -279.8,-108.8 -5.94,-7 -64.07,-1.5 -62.79,0" /><path
         id="path92"
         style="fill:#233862;fill-opacity:1;fill-rule:nonzero;stroke:none"
         d="m 10123.1,2721.1 v -321.4 c 0,-89.8 -73.5,-163.3 -163.24,-163.3 H 8314.09 c -89.76,0 -163.21,73.5 -163.21,163.3 v 321.4 c 0,89.7 73.45,163.2 163.21,163.2 h 1645.77 c 89.74,0 163.24,-73.5 163.24,-163.2" /><path
         id="path94"
         style="fill:#2b478b;fill-opacity:1;fill-rule:nonzero;stroke:none"
         d="M 10123.1,2766.4 V 2445 c 0,-89.8 -73.5,-163.2 -163.24,-163.2 H 8314.09 c -89.76,0 -163.21,73.4 -163.21,163.2 v 321.4 c 0,89.8 73.45,163.2 163.21,163.2 h 1645.77 c 89.74,0 163.24,-73.4 163.24,-163.2" /><path
         id="path96"
         style="fill:#233862;fill-opacity:1;fill-rule:nonzero;stroke:none"
         d="m 9057.64,2408.2 c 0,27.6 22.33,49.9 49.87,49.9 27.55,0 49.87,-22.3 49.87,-49.9 0,-27.5 -22.32,-49.8 -49.87,-49.8 -27.54,0 -49.87,22.3 -49.87,49.8" /><g
         transform="scale(1.77226)"
         id="g98"><path
           id="path100"
           style="fill:#a8d29f;fill-opacity:1;fill-rule:nonzero;stroke:none"
           d="m 16125.4,818.332 -3513.6,1.071 -4.6,0.847 c 0,0 309.4,426.29 912.2,424.77 602.6,-1.53 595.1,311.18 1384.5,505.91 233.7,57.6 456.1,149.41 653.4,250.18 449.5,-160.3 742.7,-464.94 568.1,-1182.778" /></g><g
         transform="scale(1.17993)"
         id="g102"><path
           id="path104"
           style="fill:#f1a34f;fill-opacity:1;fill-rule:nonzero;stroke:none"
           d="M 16300,8851.3 V 1391.1 c 0,-67.13 -51.2,-122.04 -113.7,-122.04 h -113.9 c -31.1,0 -59.5,13.64 -80,35.68 -20.8,22.12 -33.7,52.8 -33.7,86.36 v 7460.2 c 0,43.83 21.8,82.42 54.3,103.86 17.3,11.55 37.7,18.19 59.4,18.19 h 113.9 c 62.5,0 113.7,-54.86 113.7,-122.05" /></g><g
         transform="scale(1.16158)"
         id="g106"><path
           id="path108"
           style="fill:#e58638;fill-opacity:1;fill-rule:nonzero;stroke:none"
           d="M 16300,9008.9 V 1430.89 c 0,-44.5 -22,-83.76 -55,-105.54 -21.1,22.47 -34.2,53.63 -34.2,87.72 v 7578.06 c 0,44.52 22.1,83.72 55.2,105.49 20.9,-22.39 34,-53.5 34,-87.72" /></g><g
         transform="scale(1.16531)"
         id="g110"><path
           id="path112"
           style="fill:#f1a34f;fill-opacity:1;fill-rule:nonzero;stroke:none"
           d="m 14928.6,6014.48 -637.5,-429.71 578.1,-506.88 1430.8,90.25 v 577.98 l -1371.4,268.36" /></g><g
         transform="scale(1.16129)"
         id="g114"><path
           id="path116"
           style="fill:#ce8032;fill-opacity:1;fill-rule:nonzero;stroke:none"
           d="m 16260.5,5686.76 c -6.6,-17.67 -4.5,-42.29 4.6,-54.98 9.2,-12.7 21.8,-8.66 28.4,9.01 6.5,17.68 4.4,42.31 -4.7,54.99 -9.1,12.69 -21.8,8.66 -28.3,-9.02" /></g><g
         transform="scale(1.16129)"
         id="g118"><path
           id="path120"
           style="fill:#ce8032;fill-opacity:1;fill-rule:nonzero;stroke:none"
           d="m 16260.5,5343.82 c -6.6,-17.69 -4.5,-42.3 4.6,-54.99 9.2,-12.69 21.8,-8.64 28.4,9.02 6.5,17.68 4.4,42.29 -4.7,55 -9.1,12.69 -21.8,8.64 -28.3,-9.03" /></g><g
         transform="scale(1.40197)"
         id="g122"><path
           id="path124"
           style="fill:#f1a34f;fill-opacity:1;fill-rule:nonzero;stroke:none"
           d="m 15471.9,5969.72 828.1,-356.52 -796.3,-422.86 -1905.5,66.19 v 594.8 l 1873.7,118.39" /></g><g
         transform="scale(1.41231)"
         id="g126"><path
           id="path128"
           style="fill:#e89746;fill-opacity:1;fill-rule:nonzero;stroke:none"
           d="m 15358.6,5926 h 119.4 l 822,-353.91 h -119.4 l -822,353.91" /></g><g
         transform="scale(1.41231)"
         id="g130"><path
           id="path132"
           style="fill:#ce8032;fill-opacity:1;fill-rule:nonzero;stroke:none"
           d="m 15390.1,5152.33 h 63.7 l 846.2,419.76 h -119.4 l -790.5,-419.76" /></g><g
         transform="scale(1.18091)"
         id="g134"><path
           id="path136"
           style="fill:#ce8032;fill-opacity:1;fill-rule:nonzero;stroke:none"
           d="m 16291.7,6840.69 c 8.3,-22.3 5.7,-53.36 -5.8,-69.37 -11.6,-16.01 -27.6,-10.91 -35.8,11.38 -8.3,22.3 -5.7,53.36 5.9,69.38 11.5,16.02 27.5,10.91 35.7,-11.39" /></g><g
         transform="scale(1.18091)"
         id="g138"><path
           id="path140"
           style="fill:#ce8032;fill-opacity:1;fill-rule:nonzero;stroke:none"
           d="m 16291.7,6408.05 c 8.3,-22.3 5.7,-53.36 -5.8,-69.38 -11.6,-16.02 -27.6,-10.91 -35.8,11.39 -8.3,22.3 -5.7,53.36 5.9,69.36 11.5,16.03 27.5,10.93 35.7,-11.37" /></g><g
         transform="scale(1.16958)"
         id="g142"><path
           id="path144"
           style="fill:#f1a34f;fill-opacity:1;fill-rule:nonzero;stroke:none"
           d="m 14054,8392.19 -992.6,-427.37 954.4,-506.88 2284.2,79.36 v 712.97 l -2246,141.92" /></g><g
         transform="scale(1.00842)"
         id="g146"><path
           id="path148"
           style="fill:#e89746;fill-opacity:1;fill-rule:nonzero;stroke:none"
           d="m 16300,9733.37 h -167.2 l -1151.2,-495.66 h 167.2 l 1151.2,495.66" /></g><g
         transform="scale(1.00569)"
         id="g150"><path
           id="path152"
           style="fill:#ce8032;fill-opacity:1;fill-rule:nonzero;stroke:none"
           d="m 16300,8673.35 h -89.4 l -1188.2,589.49 h 167.6 l 1110,-589.49" /></g><g
         transform="scale(1.16247)"
         id="g154"><path
           id="path156"
           style="fill:#ce8032;fill-opacity:1;fill-rule:nonzero;stroke:none"
           d="m 16249.3,8193.07 c -8.3,-22.65 -5.6,-54.21 6.1,-70.48 11.6,-16.27 27.8,-11.08 36.3,11.56 8.3,22.66 5.7,54.22 -6,70.48 -11.7,16.27 -27.9,11.09 -36.4,-11.56" /></g><g
         transform="scale(1.16247)"
         id="g158"><path
           id="path160"
           style="fill:#ce8032;fill-opacity:1;fill-rule:nonzero;stroke:none"
           d="m 16249.3,7753.56 c -8.3,-22.66 -5.6,-54.21 6.1,-70.47 11.6,-16.28 27.8,-11.09 36.3,11.55 8.3,22.66 5.7,54.22 -6,70.48 -11.7,16.26 -27.9,11.09 -36.4,-11.56" /></g><g
         transform="scale(1.06726)"
         id="g162"><path
           id="path164"
           style="fill:#e89746;fill-opacity:1;fill-rule:nonzero;stroke:none"
           d="m 16300,6567 h -90.1 l -739.3,-473.34 h 133.3 L 16300,6567" /></g><g
         transform="scale(1.06302)"
         id="g166"><path
           id="path168"
           style="fill:#ce8032;fill-opacity:1;fill-rule:nonzero;stroke:none"
           d="m 16300,5566.51 h -121.9 l -645.7,551.48 h 133.8 l 633.8,-551.48" /></g><g
         transform="scale(1.19827)"
         id="g170"><path
           id="path172"
           style="fill:#f1a34f;fill-opacity:1;fill-rule:nonzero;stroke:none"
           d="m 16300,2078.66 v -829.02 h -835 v 832.28 c 0,154.47 117.2,281.4 267.5,296.93 10.2,1 20.5,1.58 31,1.58 h 234.8 c 166.7,0 301.7,-135.11 301.7,-301.77" /></g><g
         transform="scale(1.17643)"
         id="g174"><path
           id="path176"
           style="fill:#e58638;fill-opacity:1;fill-rule:nonzero;stroke:none"
           d="m 16300,2117.25 v -844.41 h -547.9 v 847.73 c 0,157.34 119.4,286.63 272.5,302.44 154.8,-15.98 275.4,-146.8 275.4,-305.76" /></g><g
         transform="scale(1.17194)"
         id="g178"><path
           id="path180"
           style="fill:#e58638;fill-opacity:1;fill-rule:nonzero;stroke:none"
           d="m 16278.9,9272.83 v 29.57 h -75.4 l 0.1,-0.48 c -20.6,-1.97 -38.4,-10.25 -53.4,-24.9 -17.4,-16.93 -26.1,-37.77 -26.1,-62.53 0,-23.96 8.9,-44.59 26.7,-61.92 17.7,-17.33 38.5,-26 62.5,-26 h 65.6 v 29.56 c 14,16.14 21.1,35.57 21.1,58.36 0,22.78 -7.1,42.2 -21.1,58.34" /></g><g
         transform="scale(1.1869)"
         id="g182"><path
           id="path184"
           style="fill:#e58638;fill-opacity:1;fill-rule:nonzero;stroke:none"
           d="m 16216.8,9867.45 c -53,44.81 -118.9,67.24 -198,67.24 -50.6,0 -98.6,-11.62 -144.3,-34.84 -45.6,-23.23 -81.1,-56.06 -106.4,-98.42 -15.5,-26.11 -23.2,-52.18 -23.2,-78.26 0,-20.39 6.3,-37.3 18.9,-50.75 12.7,-13.45 28.8,-20.17 48.4,-20.17 h 64.8 c 0,0 -0.8,24.31 -0.9,40.95 l 44.8,60.53 c 23.7,23.63 55.1,35.46 94.2,35.46 33.4,0 61.4,-9.17 83.8,-27.51 22.4,-18.34 33.6,-44.23 33.6,-77.64 0,-38.32 -11.8,-68.07 -35.5,-89.25 -17.1,-15.5 -46.5,-29.78 -88,-42.8 -31,-9.79 -51.6,-19.77 -61.8,-29.96 -10.2,-10.2 -15.2,-25.49 -15.2,-45.86 v -122.26 c 0,-24.46 6.5,-44.83 19.5,-61.14 13.1,-16.31 31.4,-24.45 55,-24.45 h 64.8 v 37.04 c 3,5.8 5.5,12.05 7.4,19.2 3.3,13.02 4.9,46.46 4.9,100.27 66.9,13.04 119.6,41.76 158.4,86.19 38.6,44.43 58,100.45 58,168.13 0,77.43 -27.7,140.19 -83.2,188.3" /></g><g
         transform="scale(1.19162)"
         id="g186"><path
           id="path188"
           style="fill:#f1a34f;fill-opacity:1;fill-rule:nonzero;stroke:none"
           d="m 16095.4,9062.34 c 0,-24.36 -8.1,-44.86 -24.3,-61.5 -16.3,-16.63 -36.5,-24.96 -61,-24.96 -23.5,0 -44,8.52 -61.4,25.57 -17.5,17.05 -26.3,37.32 -26.3,60.89 0,24.36 8.6,44.85 25.6,61.49 17.1,16.64 37.8,24.98 62.1,24.98 24.5,0 44.7,-8.34 61,-24.98 16.2,-16.64 24.3,-37.13 24.3,-61.49 z m 204.6,578.49 c 0,-67.41 -19.3,-123.21 -57.8,-167.46 -38.6,-44.26 -91.2,-72.87 -157.7,-85.85 0,-53.6 -1.7,-86.91 -4.9,-99.88 -9.7,-37.35 -33.7,-56.01 -71.9,-56.01 -23.5,0 -41.8,8.1 -54.8,24.35 -13,16.24 -19.5,36.53 -19.5,60.89 v 121.79 c 0,20.28 5.1,35.51 15.3,45.67 10.1,10.15 30.6,20.09 61.4,29.84 41.5,12.97 70.7,27.19 87.7,42.63 23.6,21.1 35.4,50.73 35.4,88.89 0,33.29 -11.2,59.07 -33.5,77.34 -22.3,18.27 -50.2,27.41 -83.4,27.41 -39,0 -70.3,-11.79 -93.9,-35.33 l -48.6,-65.76 c -17.1,-23.56 -37,-35.32 -59.7,-35.32 -19.5,0 -35.5,6.7 -48.1,20.09 -12.6,13.4 -18.9,30.25 -18.9,50.55 0,25.98 7.8,51.94 23.1,77.95 25.2,42.19 60.5,74.9 106,98.04 45.5,23.12 93.3,34.69 143.8,34.69 78.7,0 144.5,-22.34 197.2,-66.97 55.2,-47.92 82.8,-110.43 82.8,-187.55" /></g><path
         id="path190"
         style="fill:#82b378;fill-opacity:1;fill-rule:nonzero;stroke:none"
         d="m 2527.89,1491.3 4681.62,-30.6 c 0,0 -432.89,870.3 -1507.09,684.1 -677.97,-117.5 -902.53,59.7 -1181.49,233.5 516.49,195.5 1281.63,518.4 925.46,596.5 -339.88,74.6 -803.22,-256.5 -1088.48,-502.5 -59.68,30.6 -124.71,59.2 -198.35,83.7 610.58,570.3 1759.71,1707.3 1252.12,1739.8 -498,31.7 -1128.24,-1093.2 -1428.11,-1693.5 -34.53,6.9 -70.76,12.9 -108.91,17.9 -155.36,20.6 -300.28,-7.6 -433.16,-66.4 -66.16,249.1 -188.42,534 -350.9,475.9 -164.01,-58.5 21.42,-347.2 191.63,-564.1 -471.55,-313.4 -754.34,-974.3 -754.34,-974.3" /><g
         transform="scale(1.83567)"
         id="g192"><path
           id="path194"
           style="fill:#2e3552;fill-opacity:1;fill-rule:nonzero;stroke:none"
           d="M 16282.9,775.739 H 1232.78 c -9.41,0 -17.09,7.682 -17.09,17.052 v 5.828 c 0,9.425 7.68,17.107 17.09,17.107 H 16282.9 c 9.4,0 17.1,-7.682 17.1,-17.107 v -5.828 c 0,-9.37 -7.7,-17.052 -17.1,-17.052" /></g></g></g></svg>